# xmcd
#
# Track frame offsets:
#	150
#	20220
#	39407
#	59220
#	77887
#	96290
#	115755
#	135862
#	156272
#	174797
#	195842
#	217780
#	238345
#	256720
#	276922
#	299650
#
# Disc length: 4309 seconds
#
# Revision: 1
# Processed by: cddbd v1.5.1PL0 Copyright (c) Steve Scherf et al.
# Submitted via: CDex 1.50Beta5
#
DISCID=e110d310
DTITLE=坂本冬美 - 坂本冬美〜ベスト・アルバム〜
DYEAR=1900
DGENRE=World
TTITLE0=船で帰るあなた
TTITLE1=角番
TTITLE2=あばれ太鼓〜無法一代入り〜
TTITLE3=祝い酒
TTITLE4=帰りの連絡船
TTITLE5=男の情話
TTITLE6=艶花恋
TTITLE7=雨あがり
TTITLE8=冬の蝶
TTITLE9=能登はいらんかいね
TTITLE10=浜っ娘一代
TTITLE11=火の国の女
TTITLE12=男惚れ
TTITLE13=ひとり寝女の泣き枕
TTITLE14=恋は火の舞剣の舞
TTITLE15=姉妹
EXTD=
EXTT0=
EXTT1=
EXTT2=
EXTT3=
EXTT4=
EXTT5=
EXTT6=
EXTT7=
EXTT8=
EXTT9=
EXTT10=
EXTT11=
EXTT12=
EXTT13=
EXTT14=
EXTT15=
PLAYORDER=
